<svg width="60" height="60" viewBox="0 0 60 60" fill="none" xmlns="http://www.w3.org/2000/svg">
<path d="M55.2013 0H5.12678C2.39062 0 0 1.96875 0 4.67277V54.8585C0 57.5772 2.39062 60 5.12678 60H55.1865C57.9374 60 59.9999 57.5612 59.9999 54.8585V4.67277C60.016 1.96875 57.9374 0 55.2013 0ZM18.5986 50.013H10.0031V23.2875H18.5986V50.013ZM14.5982 19.2241H14.5366C11.7857 19.2241 10.0044 17.1763 10.0044 14.6129C10.0044 12.0027 11.8326 10.0031 14.6451 10.0031C17.4576 10.0031 19.1785 11.9879 19.2402 14.6129C19.2388 17.1763 17.4576 19.2241 14.5982 19.2241ZM50.0129 50.013H41.4173V35.4C41.4173 31.8991 40.1665 29.5071 37.0566 29.5071C34.6808 29.5071 33.2745 31.1143 32.6491 32.6799C32.4147 33.2424 32.3517 34.0085 32.3517 34.7906V50.013H23.7562V23.2875H32.3517V27.0067C33.6026 25.2254 35.5566 22.6621 40.1035 22.6621C45.7459 22.6621 50.0142 26.3813 50.0142 34.3996L50.0129 50.013Z" fill="#004DB0"/>
</svg>
