<svg width="28" height="30" viewBox="0 0 28 30" fill="none" xmlns="http://www.w3.org/2000/svg">
<path d="M22.6667 15.25C22.6667 12.8125 21.8743 10.7448 20.2896 9.04688C18.7049 7.34896 16.775 6.5 14.5 6.5V4C15.9583 4 17.3243 4.29688 18.5979 4.89062C19.8715 5.48438 20.9799 6.28646 21.9229 7.29688C22.866 8.30729 23.6146 9.49479 24.1688 10.8594C24.7229 12.224 25 13.6875 25 15.25H22.6667ZM18 15.25C18 14.2083 17.6597 13.3229 16.9792 12.5938C16.2986 11.8646 15.4722 11.5 14.5 11.5V9C16.1139 9 17.4896 9.60938 18.6271 10.8281C19.7646 12.0469 20.3333 13.5208 20.3333 15.25H18ZM23.775 26.5C21.3444 26.5 18.9431 25.9323 16.5708 24.7969C14.1986 23.6615 12.0403 22.0521 10.0958 19.9688C8.15139 17.8854 6.64931 15.5729 5.58958 13.0312C4.52986 10.4896 4 7.91667 4 5.3125C4 4.9375 4.11667 4.625 4.35 4.375C4.58333 4.125 4.875 4 5.225 4H9.95C10.2222 4 10.4653 4.09896 10.6792 4.29688C10.8931 4.49479 11.0194 4.72917 11.0583 5L11.8167 9.375C11.8556 9.70833 11.8458 9.98958 11.7875 10.2188C11.7292 10.4479 11.6222 10.6458 11.4667 10.8125L8.6375 13.875C9.02639 14.6458 9.48819 15.3906 10.0229 16.1094C10.5576 16.8281 11.1458 17.5208 11.7875 18.1875C12.3903 18.8333 13.0222 19.4323 13.6833 19.9844C14.3444 20.5365 15.0444 21.0417 15.7833 21.5L18.525 18.5625C18.7 18.375 18.9285 18.2344 19.2104 18.1406C19.4924 18.0469 19.7694 18.0208 20.0417 18.0625L24.0667 18.9375C24.3389 19.0208 24.5625 19.1719 24.7375 19.3906C24.9125 19.6094 25 19.8542 25 20.125V25.1875C25 25.5625 24.8833 25.875 24.65 26.125C24.4167 26.375 24.125 26.5 23.775 26.5ZM7.52917 11.5L9.45417 9.4375L8.95833 6.5H6.3625C6.45972 7.35417 6.59583 8.19792 6.77083 9.03125C6.94583 9.86458 7.19861 10.6875 7.52917 11.5ZM17.9708 22.6875C18.7292 23.0417 19.5021 23.3229 20.2896 23.5312C21.0771 23.7396 21.8694 23.875 22.6667 23.9375V21.1875L19.925 20.5938L17.9708 22.6875Z" fill="#0455BF"/>
</svg>
