<svg width="28" height="29" viewBox="0 0 28 29" fill="none" xmlns="http://www.w3.org/2000/svg">
<path fill-rule="evenodd" clip-rule="evenodd" d="M22.6805 5.4998C21.548 4.32625 20.2025 3.39629 18.7216 2.76347C17.2406 2.13064 15.6534 1.80745 14.0514 1.8125C7.32813 1.8125 1.855 7.45277 1.85227 14.3867C1.84929 16.5946 2.41122 18.764 3.48086 20.6738L1.75 27.1875L8.2168 25.439C10.0068 26.4434 12.0106 26.969 14.0465 26.9683H14.0514C20.7741 26.9683 26.2467 21.3275 26.25 14.3941C26.2541 12.7405 25.9406 11.1026 25.3278 9.57562C24.715 8.04868 23.8151 6.6632 22.6805 5.4998ZM14.0514 24.846H14.047C12.2322 24.8465 10.4503 24.3435 8.88672 23.3892L8.51648 23.1626L4.67906 24.2003L5.70336 20.3436L5.46219 19.9471C4.4474 18.2831 3.90974 16.3549 3.9118 14.3867C3.9118 8.62466 8.46235 3.93652 14.0552 3.93652C16.7382 3.93156 19.3132 5.03055 21.2139 6.99178C23.1146 8.95302 24.1853 11.6159 24.1905 14.3946C24.1883 20.1573 19.6399 24.846 14.0514 24.846ZM19.6126 17.0188C19.308 16.8613 17.8079 16.1012 17.5301 15.9964C17.2523 15.8917 17.0472 15.839 16.8443 16.1539C16.6414 16.4688 16.0568 17.1734 15.8791 17.3858C15.7013 17.5982 15.5236 17.6215 15.219 17.464C14.9144 17.3065 13.9316 16.9752 12.7673 15.9047C11.8612 15.0715 11.2498 14.0429 11.072 13.7286C10.8943 13.4142 11.0529 13.2437 11.2055 13.0874C11.3427 12.9463 11.5101 12.7203 11.6627 12.5368C11.8152 12.3533 11.8661 12.2219 11.9673 12.0123C12.0684 11.8028 12.0181 11.6193 11.9421 11.4624C11.8661 11.3055 11.2563 9.75861 11.0026 9.12933C10.7548 8.51648 10.5038 8.59974 10.3168 8.59011C10.1391 8.58105 9.93399 8.57879 9.73219 8.57879C9.57792 8.58295 9.42614 8.62 9.28631 8.68763C9.14649 8.75526 9.02163 8.85202 8.91953 8.97187C8.64008 9.28679 7.85258 10.048 7.85258 11.5932C7.85258 13.1384 8.94633 14.6337 9.09727 14.8432C9.2482 15.0528 11.2465 18.2264 14.3041 19.5875C14.8718 19.8393 15.4519 20.0601 16.042 20.249C16.7721 20.488 17.4366 20.4546 17.9616 20.3736C18.5473 20.2836 19.7663 19.6135 20.0195 18.8794C20.2727 18.1454 20.2732 17.5167 20.1972 17.3858C20.1212 17.255 19.9177 17.1757 19.6126 17.0188Z" fill="#004DB0"/>
</svg>
